<?xml version="1.0" encoding="UTF-8"?>
<svg id="simbolos" xmlns="http://www.w3.org/2000/svg" viewBox="0 0 531.84 532.22">
  <defs>
    <style>
      .cls-1 {
        fill: #8869ae;
      }
    </style>
  </defs>
  <path class="cls-1" d="m266,177.5v73.8c0,3.94-1.57,7.7-4.37,10.55-2.79,2.79-6.55,4.37-10.55,4.37H96.01c-4.06,0-7.34,3.27-7.34,7.34v81.33c0,48.94,39.72,88.66,88.66,88.66s88.66-39.72,88.66-88.66v-73.8c0-3.94,1.57-7.76,4.37-10.55,2.79-2.79,6.55-4.37,10.55-4.37h155.07c4.06,0,7.34-3.27,7.34-7.34v-81.33c0-48.94-39.72-88.66-88.66-88.66s-88.66,39.72-88.66,88.66Z"/>
</svg>